<svg width="30" height="28" viewBox="0 0 30 28" fill="none" xmlns="http://www.w3.org/2000/svg">
<g id="Group">
<path id="Vector" d="M25.1563 0.916626H4.01042C1.79813 0.916626 0 2.71621 0 4.92996V23.1518C0 25.3656 1.79813 27.1666 4.01042 27.1666H25.1563C27.3685 27.1666 29.1667 25.3656 29.1667 23.1518V4.92996C29.1667 2.71621 27.3685 0.916626 25.1563 0.916626ZM4.01042 3.10413H25.1563C26.1625 3.10413 26.9792 3.92079 26.9792 4.92704V5.96829L15.2396 13.7952C14.8415 14.0577 14.3267 14.0606 13.9271 13.7923L2.1875 5.96829V4.92704C2.1875 3.92079 3.00417 3.10413 4.01042 3.10413ZM25.1563 24.9762H4.01042C3.00417 24.9762 2.1875 24.1595 2.1875 23.1533V8.53204L12.7458 15.5758C13.3044 15.9491 13.9446 16.1358 14.5833 16.1358C15.225 16.1358 15.8623 15.9491 16.4208 15.5773L26.9792 8.5335V23.1489C26.9792 24.1552 26.1625 24.9718 25.1563 24.9718V24.9762Z" fill="black"/>
</g>
</svg>
