<svg width="30" height="30" viewBox="0 0 30 30" fill="none" xmlns="http://www.w3.org/2000/svg">
<path fill-rule="evenodd" clip-rule="evenodd" d="M11.5173 11.4217C11.923 11.1513 12.1667 10.6959 12.1667 10.2083L12.1667 4.375C12.1667 1.95875 10.2079 0 7.79167 0L1.95833 0C1.15292 0 0.5 0.652918 0.5 1.45833C0.5 15.9558 13.7109 29.1667 28.2083 29.1667C29.0137 29.1667 29.6667 28.5137 29.6667 27.7083V21.875C29.6667 19.4588 27.7079 17.5 25.2917 17.5H19.4583C18.9707 17.5 18.5154 17.7437 18.2449 18.1494L15.4663 22.3173C12.4399 20.3605 9.78849 17.7759 7.749 14.8006L7.34933 14.2004L11.5173 11.4217ZM20.2394 20.4167H25.2923C26.0977 20.4167 26.7506 21.0696 26.7506 21.8751V26.1995C23.9255 26.004 21.1683 25.2484 18.5967 24.0503L18.0066 23.766L20.2394 20.4167ZM3.468 2.91676L7.79243 2.91676C8.59785 2.91676 9.25076 3.56968 9.25076 4.37509L9.25076 9.42795L5.90153 11.6608C4.53863 8.92283 3.67852 5.95923 3.468 2.91676Z" fill="black"/>
</svg>
