<svg width="88" height="120" viewBox="0 0 88 120" fill="none" xmlns="http://www.w3.org/2000/svg">
<path d="M39.0824 6.46562C36.1204 6.46562 30.5576 8.52737 28.3055 10.3291C26.0402 12.1413 22.5723 12.9204 20.7819 15.1584C16.0472 21.0768 11.6317 25.5193 11.6317 33.4589C11.6317 40.8766 8.39561 48.6685 7.97158 55.877C7.72223 60.1159 7.05656 64.021 7.05656 68.2298C7.05656 70.3612 6.26228 78.8304 5.02317 80.3793C3.58377 82.1785 2.48143 88.2316 2.48143 90.6479C2.48143 94.0887 1.56641 98.192 1.56641 102.086C1.56641 109.773 3.22187 118.099 12.0892 118.099C16.7505 118.099 14.1185 112.613 16.4101 110.067C19.4756 106.661 23.44 106.203 27.6446 106.203C30.1198 106.203 37.9047 104.895 39.7941 106.407C42.0255 108.192 46.7792 111.693 49.6052 111.693C52.5578 111.693 55.7305 114.439 58.7555 114.439C63.3781 114.439 65.092 113.029 68.1599 110.575C69.318 109.649 69.9327 108.033 71.5658 108.033C72.4558 108.033 77.0266 107.269 77.5135 106.661C80.1563 103.357 80.2585 99.3763 80.2585 95.223C80.2585 92.8325 81.5172 85.3585 80.0552 83.5311C78.5522 81.6523 77.5135 76.2595 77.5135 73.7199C77.5135 65.7961 80.7807 60.9762 84.3762 54.5044C85.5346 52.4192 85.7487 45.8073 85.7487 43.5241C85.7487 39.4282 85.9758 35.2601 85.7487 31.1713C85.4216 25.2837 80.6462 16.4102 76.3951 12.1591C74.1864 9.95037 72.8331 7.28522 69.7866 6.41479C68.5516 6.06194 66.9218 4.71226 65.6181 4.63557C64.7187 4.58266 60.9781 4.03459 60.3313 3.51721C55.6958 -0.191239 43.4057 3.38894 39.0824 5.5506" stroke="black" stroke-width="3" stroke-linecap="round"/>
</svg>
