<svg width="407" height="620" viewBox="0 0 407 620" fill="none" xmlns="http://www.w3.org/2000/svg">
<path d="M70.4035 616.865C66.5413 616.513 58.9414 612.454 55.8619 609.99C53.1005 607.781 48.2587 607.772 45.1539 605.231C39.7705 600.827 31.4452 598.129 27.5717 591.351C26.3724 589.252 21.6771 583.374 19.9043 582.361C17.5762 581.031 14.0817 574.524 12.1046 572.314C6.62502 566.19 2.58646 553.886 2.58646 546.073C2.58646 539.821 0.0941231 524.866 5.56089 520.493C12.0942 515.266 20.7567 513.825 28.7615 513.354C37.104 512.864 47.1754 510.374 55.5314 512.231C63.2844 513.953 70.8461 520.055 78.732 520.493C80.7576 520.605 87.1051 523.86 88.5145 524.988C90.8654 526.868 96.8938 528.572 99.8835 528.821C106.742 529.393 116.415 531.673 119.118 522.211C121.523 513.795 121.564 504.424 121.564 495.508C121.564 491.171 121.818 486.748 121.564 482.42C121.346 478.715 119.184 475.533 119.184 471.117C119.184 461.501 117.089 452.528 116.805 443.158C116.499 433.068 116.805 422.915 116.805 412.818C116.805 408.795 114.425 404.785 114.425 400.921C114.425 396.189 113.481 391.661 113.235 387.238C112.82 379.765 108.476 371.377 108.476 364.038C108.476 354.13 103.717 344.378 103.717 334.293C103.717 332.775 102.907 322.58 101.933 321.801C99.0475 319.493 101.252 312.43 99.2225 309.639C96.6158 306.054 100.187 296.864 97.5039 293.511C95.6447 291.186 95.3888 285.073 95.3888 281.943C95.3888 272.573 94.199 264.324 94.199 255.173C94.199 236.554 93.0092 217.21 93.0092 199.254C93.0092 190.162 95.8281 182.108 97.7022 173.674C98.7874 168.791 98.9487 163.306 100.082 158.207C100.967 154.224 102.527 149.939 102.527 145.714C102.527 137.625 104.907 128.94 104.907 120.729C104.907 115.249 105.298 110.33 107.551 105.262C108.196 103.811 110.486 102.331 110.79 100.966C111.501 97.7636 110.514 94.1817 110.922 90.9185C112.15 81.0981 119.48 70.0909 125.398 62.6945C129.756 57.2465 135.342 54.9997 138.816 48.7477C140.233 46.1959 140.6 39.7369 140.6 36.8499C140.6 32.5115 139.41 28.147 139.41 24.3573C139.41 17.6218 152.922 16.0289 157.852 16.0289C162.214 16.0289 166.577 16.0289 170.939 16.0289C175.216 16.0289 178.058 18.4084 182.242 18.4084C193.103 18.4084 186.361 5.24905 194.669 2.87529C201.359 0.963692 209.724 2.49246 214.366 8.29537C218.219 13.111 228.634 20.0817 234.857 15.1035C236.05 14.1485 246.222 14.1485 247.415 15.1035C250.225 17.3515 248.87 23.9885 248.87 27.3317C248.87 34.5216 255.845 40.1896 260.503 44.8479C265.531 49.8757 266.99 57.4181 271.211 62.6945C273.5 65.5557 272.527 70.5857 274.78 73.4024C276.197 75.1736 277.915 81.1023 278.548 83.3172C282.938 98.6834 286.942 116.389 286.942 133.222C286.942 153.646 286.942 174.07 286.942 194.495C286.942 203.684 288.132 212.142 288.132 221.265C288.132 239.421 286.753 257.388 285.753 275.4C285.344 282.761 280.348 291.096 278.68 298.6C276.765 307.218 274.352 316.422 273.855 325.37C272.84 343.637 264.337 358.468 264.337 376.53C264.337 386.094 266.716 394.794 266.716 403.895C266.716 408.028 266.879 412.155 265.262 415.793C264.2 418.183 262.98 426.396 261.362 427.691C259.382 429.274 259.578 442.069 259.578 444.942C259.578 449.137 257.871 457.978 260.503 461.269C262.035 463.183 261.801 471.447 261.957 474.092C262.049 475.646 263.832 485.11 264.932 485.989C270.803 490.687 268.244 502.474 272.401 507.67C278.516 515.314 283.331 516.924 293.486 516.924C304.943 516.924 314.025 507.01 324.751 506.216C335.647 505.409 347.344 503.836 358.329 503.836C365.609 503.836 379.554 503.002 384.504 509.19C388.411 514.074 399.029 517.714 399.971 525.252C400.378 528.512 403.54 531.384 403.54 534.77C403.54 539.147 404.73 542.643 404.73 547.263C404.73 555.14 405.573 564.797 400.235 570.728C398.467 572.692 395.521 579.89 395.212 582.361C394.818 585.513 391.378 588.342 390.519 591.351C388.798 597.372 379.903 603.777 373.796 603.777C366.918 603.777 361.453 610.916 354.165 610.916C346.455 610.916 340.961 614.84 334.533 618.054" stroke="black" stroke-width="3" stroke-linecap="round"/>
</svg>
