<svg width="57" height="59" viewBox="0 0 57 59" fill="none" xmlns="http://www.w3.org/2000/svg">
<path d="M2.32227 57.1651C2.32227 52.4296 4.94212 49.1404 7.06841 45.0812C8.9858 41.4207 9.89017 37.2026 12.3141 33.8091C16.6716 27.7087 22.5766 22.8915 28.7695 18.6339C32.5097 16.0625 35.4776 13.7428 39.7294 11.9206C43.6305 10.2487 51.5323 7.14325 51.5323 7.14325C51.5323 7.14325 43.5538 4.77681 40.4163 2.20976C38.6526 0.76675 41.3334 2.231 42.4771 2.6469C43.4359 2.99555 46.0992 4.39551 46.7237 5.1761C47.4281 6.0566 49.1335 6.22123 49.971 7.26814C50.916 8.44932 49.5761 11.1483 49.2841 12.2329C48.0468 16.8284 45.0375 21.4307 45.0375 26.2527" stroke="black" stroke-width="3" stroke-linecap="round"/>
</svg>
