<svg width="129" height="47" viewBox="0 0 129 47" fill="none" xmlns="http://www.w3.org/2000/svg">
<path d="M1.75 4.79123C14.1915 4.01364 28.5933 0.0871161 40.8889 3.73024C47.5997 5.71863 54.1804 6.44027 60.8119 9.03521C64.2719 10.3891 67.4929 12.1852 70.9503 13.515C77.6984 16.1104 83.5413 19.8737 89.4587 23.8891C96.4327 28.6214 104.19 35.3825 112.624 36.68C115.714 37.1554 118.621 38.3478 121.583 39.2735C123.251 39.7948 127.336 42.938 126.888 39.804C126.227 35.1772 120.687 22.2149 121.701 26.7774C122.871 32.0429 128.916 40.3685 122.173 41.867C118.271 42.7341 112.161 42.9416 108.91 45.109" stroke="black" stroke-width="3" stroke-linecap="round"/>
</svg>
