<svg width="30" height="30" viewBox="0 0 30 30" fill="none" xmlns="http://www.w3.org/2000/svg">
<path id="Icon" fill-rule="evenodd" clip-rule="evenodd" d="M26.8968 0C28.2425 0 29.3334 1.09014 29.3334 2.43657L29.3334 26.7301C29.3334 28.0758 28.2433 29.1667 26.8968 29.1667L2.60332 29.1667C1.25764 29.1667 0.166748 28.0765 0.166748 26.7301L0.166748 2.43657C0.166748 1.09089 1.25688 0 2.60332 0L26.8968 0ZM19.8817 10.9374C17.8118 10.9374 16.3954 11.8523 15.7648 12.9153L15.6617 13.1042V11.1197H11.712V25.0954H15.9655V18.3257C15.9655 16.0568 16.801 14.6136 18.8093 14.6136C20.1943 14.6136 20.7754 15.8384 20.8234 18.022L20.8266 18.3257V25.0954H25.0801L25.0801 17.3766C25.0801 13.2088 24.083 10.9374 19.8817 10.9374ZM8.67451 10.9374H4.42104L4.42104 24.9131H8.67451V10.9374ZM6.54783 3.6458C5.03784 3.6458 3.81345 4.87019 3.81345 6.38018C3.81345 7.89016 5.03784 9.11455 6.54783 9.11455C8.05781 9.11455 9.2822 7.89016 9.2822 6.38018C9.2822 4.87019 8.05781 3.6458 6.54783 3.6458Z" fill="black"/>
</svg>
