<svg width="30" height="30" viewBox="0 0 30 30" fill="none" xmlns="http://www.w3.org/2000/svg">
<path id="Vector" d="M8.79159 0H21.0416C25.7083 0 29.4999 3.79167 29.4999 8.45833V20.7083C29.4999 22.9516 28.6088 25.103 27.0225 26.6893C25.4363 28.2755 23.2849 29.1667 21.0416 29.1667H8.79159C4.12492 29.1667 0.333252 25.375 0.333252 20.7083V8.45833C0.333252 6.21505 1.2244 4.06363 2.81064 2.47739C4.39689 0.891144 6.5483 0 8.79159 0ZM8.49992 2.91667C7.10753 2.91667 5.77217 3.46979 4.78761 4.45436C3.80304 5.43892 3.24992 6.77428 3.24992 8.16667V21C3.24992 23.9021 5.59784 26.25 8.49992 26.25H21.3333C22.7256 26.25 24.061 25.6969 25.0456 24.7123C26.0301 23.7277 26.5833 22.3924 26.5833 21V8.16667C26.5833 5.26458 24.2353 2.91667 21.3333 2.91667H8.49992ZM22.5728 5.10417C23.0563 5.10417 23.52 5.29622 23.8618 5.63809C24.2037 5.97995 24.3958 6.44362 24.3958 6.92708C24.3958 7.41055 24.2037 7.87422 23.8618 8.21608C23.52 8.55794 23.0563 8.75 22.5728 8.75C22.0894 8.75 21.6257 8.55794 21.2838 8.21608C20.942 7.87422 20.7499 7.41055 20.7499 6.92708C20.7499 6.44362 20.942 5.97995 21.2838 5.63809C21.6257 5.29622 22.0894 5.10417 22.5728 5.10417ZM14.9166 7.29167C16.8505 7.29167 18.7051 8.05989 20.0726 9.42735C21.44 10.7948 22.2083 12.6495 22.2083 14.5833C22.2083 16.5172 21.44 18.3719 20.0726 19.7393C18.7051 21.1068 16.8505 21.875 14.9166 21.875C12.9827 21.875 11.1281 21.1068 9.7606 19.7393C8.39315 18.3719 7.62492 16.5172 7.62492 14.5833C7.62492 12.6495 8.39315 10.7948 9.7606 9.42735C11.1281 8.05989 12.9827 7.29167 14.9166 7.29167ZM14.9166 10.2083C13.7563 10.2083 12.6435 10.6693 11.823 11.4897C11.0025 12.3102 10.5416 13.423 10.5416 14.5833C10.5416 15.7437 11.0025 16.8565 11.823 17.6769C12.6435 18.4974 13.7563 18.9583 14.9166 18.9583C16.0769 18.9583 17.1897 18.4974 18.0102 17.6769C18.8307 16.8565 19.2916 15.7437 19.2916 14.5833C19.2916 13.423 18.8307 12.3102 18.0102 11.4897C17.1897 10.6693 16.0769 10.2083 14.9166 10.2083Z" fill="black"/>
</svg>
